<svg width="157" height="29" viewBox="0 0 157 29" fill="none" xmlns="http://www.w3.org/2000/svg">
<path d="M8.87467 28.448C7.77956 28.448 6.75556 28.3484 5.80267 28.1493C4.864 27.9644 4.07467 27.7156 3.43467 27.4027C2.79467 27.0898 2.26844 26.7911 1.856 26.5067C1.45778 26.2222 1.12356 25.9378 0.853333 25.6533L1.38667 20.4693C1.96978 21.2516 2.752 21.9342 3.73333 22.5173C4.71467 23.0862 5.77422 23.3707 6.912 23.3707C8.04978 23.3707 8.86756 23.2498 9.36533 23.008C9.87733 22.7662 10.1333 22.3253 10.1333 21.6853C10.1333 21.0027 9.84178 20.4196 9.25867 19.936C8.68978 19.4524 7.70133 18.8693 6.29333 18.1867C5.78133 17.9307 5.34756 17.7031 4.992 17.504C4.63644 17.2907 4.16 16.9493 3.56267 16.48C2.97956 15.9964 2.50311 15.4987 2.13333 14.9867C1.76356 14.4604 1.43644 13.792 1.152 12.9813C0.867556 12.1564 0.725333 11.2747 0.725333 10.336C0.725333 5.25867 3.59111 2.72 9.32267 2.72C10.2329 2.72 11.0862 2.81956 11.8827 3.01867C12.6933 3.20356 13.3262 3.40978 13.7813 3.63733C14.2364 3.86489 14.6489 4.13511 15.0187 4.448C15.4027 4.74667 15.6444 4.96 15.744 5.088C15.8436 5.20178 15.9147 5.29422 15.9573 5.36533L14.8907 9.48267C14.336 8.82844 13.6391 8.34489 12.8 8.032C11.9751 7.70489 11.1858 7.54133 10.432 7.54133C8.61156 7.54133 7.70133 8.11022 7.70133 9.248C7.70133 9.54667 7.75822 9.81689 7.872 10.0587C7.98578 10.3004 8.17067 10.5209 8.42667 10.72C8.68267 10.9191 8.91733 11.0898 9.13067 11.232C9.35822 11.3742 9.664 11.552 10.048 11.7653C10.4462 11.9644 10.7449 12.128 10.944 12.256C13.0204 13.1378 14.5422 14.1831 15.5093 15.392C16.4907 16.6009 16.9813 18.0729 16.9813 19.808C16.9813 22.624 16.2844 24.7716 14.8907 26.2507C13.5111 27.7156 11.5058 28.448 8.87467 28.448ZM24.4685 28.448C22.5485 28.448 21.2045 27.872 20.4365 26.72C19.6827 25.568 19.3058 23.6196 19.3058 20.8747V13.6213H17.8338V10.656L20.3512 9.86667L22.5272 4.896H26.2818V9.86667H29.7805V13.6213H26.2178V21.5573C26.2178 22.6951 26.3814 23.4489 26.7085 23.8187C27.0356 24.1884 27.5405 24.3733 28.2232 24.3733C28.5218 24.3733 28.7921 24.3378 29.0338 24.2667C29.2756 24.1956 29.4747 24.096 29.6312 23.968V26.8693C29.4178 27.0827 29.1405 27.296 28.7992 27.5093C28.4578 27.7084 27.8889 27.9147 27.0925 28.128C26.3103 28.3413 25.4356 28.448 24.4685 28.448ZM40.88 26.1013L40.6667 26.336C40.5244 26.5067 40.304 26.7058 40.0053 26.9333C39.7209 27.1609 39.3867 27.3884 39.0027 27.616C38.6329 27.8436 38.1778 28.0356 37.6373 28.192C37.0969 28.3627 36.5422 28.448 35.9733 28.448C32.1333 28.448 30.2133 26.5493 30.2133 22.752C30.2133 22.0124 30.3484 21.3369 30.6187 20.7253C30.8889 20.0996 31.2373 19.5733 31.664 19.1467C32.0907 18.72 32.6027 18.3431 33.2 18.016C33.7973 17.6747 34.3947 17.4116 34.992 17.2267C35.6036 17.0276 36.2436 16.864 36.912 16.736C37.5804 16.608 38.1778 16.5227 38.704 16.48C39.2302 16.4373 39.7351 16.416 40.2187 16.416V16.032C40.2187 15.1644 39.984 14.5529 39.5147 14.1973C39.0596 13.8418 38.32 13.664 37.296 13.664C36.4142 13.664 35.4969 13.7707 34.544 13.984C33.5911 14.1831 32.8444 14.4249 32.304 14.7093L30.9387 11.808C31.9058 11.1822 33.1644 10.6347 34.7147 10.1653C36.2649 9.68178 37.8436 9.44 39.4507 9.44C40.8729 9.44 42.0462 9.58222 42.9707 9.86667C43.8951 10.1369 44.6418 10.6062 45.2107 11.2747C45.7938 11.9289 46.2062 12.768 46.448 13.792C46.6898 14.8018 46.8107 16.0889 46.8107 17.6533V26.336L47.408 28H41.5627L40.88 26.1013ZM39.1947 24.6933C39.3796 24.6933 39.5502 24.6578 39.7067 24.5867C39.8773 24.5013 40.0053 24.4231 40.0907 24.352C40.176 24.2667 40.2187 24.224 40.2187 24.224V19.104C39.3511 19.104 38.6613 19.3458 38.1493 19.8293C37.6373 20.2987 37.3813 21.0311 37.3813 22.0267C37.3813 23.8044 37.9858 24.6933 39.1947 24.6933ZM63.811 26.2293L63.619 26.464C63.491 26.6062 63.2634 26.7911 62.9363 27.0187C62.6234 27.232 62.2394 27.4524 61.7843 27.68C61.3434 27.8933 60.7461 28.0711 59.9923 28.2133C59.2528 28.3698 58.4563 28.448 57.603 28.448C54.7159 28.448 52.5043 27.6018 50.9683 25.9093C49.4466 24.2169 48.6857 21.9769 48.6857 19.1893C48.6857 17.6818 48.9203 16.3093 49.3897 15.072C49.859 13.8347 50.499 12.8107 51.3097 12C52.1346 11.1751 53.0946 10.5422 54.1897 10.1013C55.299 9.64622 56.4937 9.41867 57.7737 9.41867C60.2483 9.41867 62.1683 10.0089 63.5337 11.1893C63.8323 11.488 63.9817 11.6373 63.9817 11.6373L63.6617 16.6507L60.6323 16.672L59.4163 13.408C59.3026 13.3796 59.1461 13.3653 58.947 13.3653C57.6528 13.3653 56.7568 13.8133 56.259 14.7093C55.7754 15.5911 55.5337 17.1271 55.5337 19.3173C55.5337 20.2702 55.6119 21.088 55.7683 21.7707C55.9248 22.4391 56.1026 22.944 56.3017 23.2853C56.5008 23.6124 56.7639 23.8684 57.091 24.0533C57.4323 24.2382 57.7097 24.3449 57.923 24.3733C58.1363 24.4018 58.3994 24.416 58.7123 24.416C59.4234 24.416 60.1488 24.3307 60.8883 24.16C61.6421 23.9893 62.2608 23.712 62.7443 23.328L63.811 26.2293ZM76.4908 28L73.1842 19.2747L76.6828 9.86667H84.6828L79.0935 18.2507L84.8108 28H76.4908ZM65.8028 28V3.872L64.5228 3.104V1.12L71.3708 0.0533333H72.7575V28H65.8028ZM92.4282 28H85.3668V2.99733H92.4282V12.896H97.9108V2.99733H104.972V28H97.9108V17.8027H92.4282V28ZM117.618 16.9707C117.618 15.1644 117.525 13.8844 117.34 13.1307C117.155 12.3769 116.814 12 116.316 12C115.89 12 115.541 12.0782 115.271 12.2347C115.001 12.3769 114.802 12.6116 114.674 12.9387C114.546 13.2516 114.46 13.5787 114.418 13.92C114.389 14.2471 114.375 14.6667 114.375 15.1787V16.9707H117.618ZM115.911 28.448C114.318 28.448 112.931 28.2062 111.751 27.7227C110.585 27.2391 109.66 26.5636 108.978 25.696C108.309 24.8284 107.819 23.8542 107.506 22.7733C107.193 21.6782 107.036 20.4622 107.036 19.1253C107.036 15.9396 107.847 13.5289 109.468 11.8933C111.09 10.2578 113.358 9.44 116.274 9.44C119.075 9.44 121.081 10.1013 122.29 11.424C123.499 12.7324 124.103 14.8444 124.103 17.76V20.128H114.354V20.5333C114.354 21.3724 114.439 22.0622 114.61 22.6027C114.795 23.1431 115.058 23.5413 115.399 23.7973C115.74 24.0533 116.089 24.224 116.444 24.3093C116.8 24.3947 117.234 24.4373 117.746 24.4373C118.243 24.4373 118.777 24.3733 119.346 24.2453C119.929 24.1173 120.512 23.9182 121.095 23.648C121.692 23.3778 122.19 23.0578 122.588 22.688L123.847 24.8427C123.321 25.696 122.546 26.4142 121.522 26.9973C120.512 27.5662 119.538 27.9502 118.599 28.1493C117.66 28.3484 116.764 28.448 115.911 28.448ZM133.305 28H126.414V14.1973L125.134 13.408V10.9973L129.721 9.86667H131.449L132.067 14.944C132.65 11.4596 134.521 9.71733 137.678 9.71733C138.034 9.71733 138.403 9.78133 138.787 9.90933L138.062 17.504C137.763 17.2338 137.109 17.0987 136.099 17.0987C134.649 17.0987 133.717 17.4827 133.305 18.2507V28ZM150.055 16.9707C150.055 15.1644 149.963 13.8844 149.778 13.1307C149.593 12.3769 149.252 12 148.754 12C148.327 12 147.979 12.0782 147.708 12.2347C147.438 12.3769 147.239 12.6116 147.111 12.9387C146.983 13.2516 146.898 13.5787 146.855 13.92C146.827 14.2471 146.812 14.6667 146.812 15.1787V16.9707H150.055ZM148.349 28.448C146.756 28.448 145.369 28.2062 144.188 27.7227C143.022 27.2391 142.098 26.5636 141.415 25.696C140.747 24.8284 140.256 23.8542 139.943 22.7733C139.63 21.6782 139.474 20.4622 139.474 19.1253C139.474 15.9396 140.284 13.5289 141.906 11.8933C143.527 10.2578 145.796 9.44 148.711 9.44C151.513 9.44 153.518 10.1013 154.727 11.424C155.936 12.7324 156.541 14.8444 156.541 17.76V20.128H146.791V20.5333C146.791 21.3724 146.877 22.0622 147.047 22.6027C147.232 23.1431 147.495 23.5413 147.837 23.7973C148.178 24.0533 148.526 24.224 148.882 24.3093C149.237 24.3947 149.671 24.4373 150.183 24.4373C150.681 24.4373 151.214 24.3733 151.783 24.2453C152.366 24.1173 152.949 23.9182 153.533 23.648C154.13 23.3778 154.628 23.0578 155.026 22.688L156.285 24.8427C155.758 25.696 154.983 26.4142 153.959 26.9973C152.949 27.5662 151.975 27.9502 151.036 28.1493C150.098 28.3484 149.202 28.448 148.349 28.448Z" fill="black"/>
</svg>
